<?xml version="1.0" standalone="no"?>
<!DOCTYPE svg PUBLIC "-//W3C//DTD SVG 20010904//EN"
 "http://www.w3.org/TR/2001/REC-SVG-20010904/DTD/svg10.dtd">
<svg version="1.0" xmlns="http://www.w3.org/2000/svg"
 width="768.000000pt" height="768.000000pt" viewBox="0 0 768.000000 768.000000"
 preserveAspectRatio="xMidYMid meet">
<metadata>
Created by potrace 1.14, written by Peter Selinger 2001-2017
</metadata>
<g transform="translate(0.000000,768.000000) scale(0.100000,-0.100000)"
fill="#000000" stroke="none">
<path d="M4262 7548 c-7 -7 -12 -8 -12 -4 0 5 -6 3 -14 -3 -10 -9 -16 -9 -21
-1 -5 8 -11 8 -21 -1 -11 -9 -17 -9 -28 0 -8 7 -17 8 -20 3 -6 -11 -36 -9 -55
3 -9 5 -12 4 -7 -3 4 -7 -9 -10 -36 -10 -104 1 -129 -2 -122 -14 5 -8 1 -8
-10 1 -15 13 -19 13 -27 0 -7 -11 -9 -11 -9 0 0 11 -3 11 -17 0 -14 -12 -15
-12 -9 -1 7 11 4 12 -13 3 -16 -9 -21 -9 -21 0 0 7 -5 8 -12 3 -16 -11 -39
-11 -57 0 -10 7 -12 6 -6 -4 6 -10 4 -12 -8 -7 -10 3 -17 3 -17 -1 0 -4 -21
-7 -48 -6 -26 0 -53 -4 -60 -10 -10 -7 -16 -5 -23 5 -5 8 -9 9 -9 3 0 -6 -15
-10 -35 -9 -19 1 -35 -2 -35 -5 0 -4 -12 -6 -27 -4 -15 1 -33 -2 -40 -8 -9 -8
-13 -7 -13 3 0 8 -6 6 -16 -7 -8 -10 -13 -14 -10 -8 4 8 -3 11 -19 10 -14 0
-25 -5 -25 -9 0 -4 -10 -3 -21 4 -12 6 -19 7 -15 1 3 -5 -3 -12 -14 -15 -11
-3 -20 0 -20 5 0 7 -5 7 -12 1 -7 -5 -25 -9 -40 -8 -16 0 -28 -3 -28 -9 0 -5
-3 -6 -7 -3 -3 4 -13 1 -21 -6 -13 -10 -14 -9 -8 1 7 11 4 12 -11 3 -14 -7
-24 -7 -33 2 -10 9 -11 9 -6 0 5 -9 -1 -13 -18 -14 -14 -1 -34 -2 -43 -2 -10
-1 -21 -6 -25 -12 -5 -6 -8 -4 -8 5 0 12 -2 13 -9 1 -5 -8 -22 -14 -37 -15
-16 -1 -35 -5 -43 -10 -11 -7 -12 -6 -6 5 7 11 6 12 -6 2 -8 -6 -25 -13 -39
-15 -14 -1 -28 -7 -32 -13 -5 -6 -8 -5 -8 4 0 11 -3 11 -15 1 -8 -6 -18 -9
-23 -6 -5 3 -21 -1 -36 -9 -18 -10 -24 -10 -19 -2 5 9 3 9 -8 1 -13 -11 -70
-28 -95 -29 -6 0 -18 -5 -25 -11 -8 -5 -26 -10 -41 -9 -15 0 -29 -4 -32 -11
-2 -7 -15 -9 -30 -7 -16 3 -26 1 -26 -6 0 -7 -4 -10 -9 -6 -5 3 -13 0 -16 -6
-4 -5 -13 -8 -21 -5 -8 3 -14 1 -14 -5 0 -6 -4 -8 -9 -4 -5 3 -13 0 -16 -6 -4
-5 -13 -8 -21 -5 -8 3 -14 1 -14 -4 0 -6 -6 -9 -12 -8 -7 2 -12 -2 -11 -9 2
-7 -4 -10 -12 -7 -9 4 -21 1 -29 -5 -7 -6 -16 -8 -19 -4 -4 3 -7 1 -7 -5 0 -7
-3 -11 -7 -11 -23 4 -43 -2 -38 -11 5 -9 -15 -15 -37 -11 -5 0 -8 -4 -8 -10 0
-5 -4 -7 -10 -4 -5 3 -10 3 -10 -2 0 -4 -18 -16 -40 -27 -21 -10 -41 -25 -44
-32 -3 -8 -12 -14 -21 -14 -8 0 -15 -5 -15 -12 0 -6 -3 -8 -7 -5 -3 4 -17 -6
-31 -21 -14 -15 -30 -26 -34 -24 -4 1 -8 -2 -8 -6 0 -5 -11 -22 -25 -38 -14
-16 -28 -37 -31 -46 -3 -10 -9 -18 -14 -18 -5 0 -7 -10 -5 -22 3 -12 0 -27 -6
-34 -7 -8 -9 -42 -6 -88 4 -52 2 -76 -6 -80 -8 -3 -8 -5 1 -5 7 -1 10 -6 7
-11 -13 -21 -7 -291 7 -308 10 -12 10 -14 1 -8 -7 4 -13 2 -13 -3 0 -6 5 -11
11 -11 5 0 7 -4 4 -10 -3 -5 -1 -10 4 -10 6 0 10 -3 9 -7 -2 -10 13 -45 26
-61 24 -28 87 -92 92 -92 11 0 33 -28 26 -34 -3 -4 1 -4 11 0 10 3 17 1 17 -6
0 -6 5 -8 10 -5 6 3 10 2 10 -3 0 -5 14 -15 30 -22 17 -7 30 -17 30 -22 0 -5
5 -6 10 -3 6 3 10 1 10 -5 0 -7 6 -10 12 -8 7 3 19 -1 26 -9 8 -7 18 -11 23
-8 5 4 9 2 9 -4 0 -6 8 -8 18 -4 9 3 14 3 11 -1 -6 -7 -42 -17 -66 -18 -7 -1
-13 -5 -13 -10 0 -5 -4 -7 -9 -4 -5 3 -14 -1 -21 -9 -7 -8 -9 -15 -4 -15 5 0
1 -5 -9 -11 -9 -6 -15 -14 -12 -20 4 -5 2 -9 -2 -9 -11 0 -10 -41 1 -59 6 -10
5 -12 -2 -7 -8 5 -10 2 -6 -8 3 -9 10 -16 15 -16 5 0 9 -7 9 -15 0 -8 21 -24
48 -36 29 -14 41 -24 32 -27 -8 -3 -21 -10 -29 -16 -12 -9 -13 -8 -6 3 5 10 4
12 -3 7 -7 -4 -12 -14 -12 -22 0 -9 -5 -12 -12 -8 -7 5 -9 2 -5 -9 3 -9 -1
-18 -10 -21 -9 -4 -13 -9 -10 -13 4 -3 2 -12 -4 -20 -9 -10 -8 -13 2 -13 11 0
11 -2 -1 -10 -8 -5 -10 -10 -5 -10 6 0 12 -10 12 -22 1 -13 9 -28 17 -34 9 -6
12 -15 8 -19 -4 -5 1 -5 11 -2 9 4 17 2 17 -3 0 -5 11 -12 25 -16 33 -8 23
-21 -15 -19 -16 1 -28 0 -26 -2 2 -3 -10 -18 -26 -34 -17 -16 -27 -29 -23 -29
4 0 2 -6 -4 -13 -6 -8 -8 -17 -4 -20 3 -4 1 -7 -6 -7 -8 0 -9 -5 -1 -19 5 -11
10 -28 10 -39 0 -11 7 -23 16 -26 8 -3 12 -11 8 -17 -4 -7 -3 -9 4 -5 6 3 17
-1 25 -9 9 -8 24 -15 34 -16 10 0 13 -3 5 -6 -6 -2 -10 -9 -6 -14 3 -5 -2 -9
-12 -9 -9 0 -23 -8 -31 -17 -8 -10 -11 -12 -7 -4 5 10 3 12 -5 7 -7 -5 -10
-10 -7 -13 3 -3 1 -14 -5 -25 -16 -30 -19 -58 -6 -58 7 0 6 -4 -3 -10 -10 -6
-11 -10 -2 -10 6 0 12 -9 12 -20 0 -11 5 -20 12 -20 6 0 9 -3 5 -6 -9 -10 16
-32 30 -27 7 3 13 0 13 -6 0 -6 10 -11 23 -12 21 0 21 -1 2 -8 -11 -5 -25 -7
-30 -4 -18 6 -76 -62 -78 -93 -1 -16 -6 -32 -12 -36 -6 -5 -5 -8 3 -8 7 0 11
-4 7 -9 -3 -5 -1 -12 5 -16 6 -4 8 -11 5 -16 -4 -5 -2 -9 2 -9 5 0 20 -11 35
-25 15 -14 31 -25 35 -24 4 0 9 -5 12 -13 2 -7 0 -10 -4 -6 -8 7 -65 -47 -65
-62 0 -6 -3 -10 -7 -10 -5 0 -9 -11 -9 -25 -1 -14 3 -25 10 -25 6 0 4 -5 -4
-10 -10 -6 -11 -10 -2 -10 6 0 12 -7 12 -15 0 -19 45 -67 54 -58 3 4 6 1 6 -6
0 -7 4 -10 9 -7 5 3 11 0 14 -8 4 -9 -2 -12 -19 -10 -26 2 -84 -46 -84 -71 0
-7 -6 -16 -12 -18 -7 -3 -8 -6 -2 -6 6 -1 9 -14 6 -31 -3 -24 0 -31 20 -39
133 -51 289 -143 421 -250 117 -95 377 -389 377 -427 0 -6 8 -22 19 -35 26
-34 88 -188 121 -299 50 -172 54 -215 46 -516 -7 -297 -10 -314 -76 -512 -29
-88 -114 -257 -145 -292 -8 -9 -15 -21 -15 -27 0 -34 -250 -299 -385 -408
-107 -87 -302 -184 -470 -236 -77 -23 -145 -47 -152 -53 -17 -16 -22 -133 -5
-122 10 6 9 -25 -2 -42 -4 -7 -8 -80 -9 -162 -2 -114 1 -150 11 -150 6 0 12
-5 12 -11 0 -5 -5 -7 -11 -3 -8 4 -8 0 0 -15 7 -11 9 -21 5 -21 -4 0 2 -10 14
-23 12 -13 20 -26 17 -28 -2 -3 20 -31 50 -63 30 -32 55 -56 55 -52 0 3 9 -3
19 -13 11 -11 35 -27 55 -36 20 -10 36 -22 36 -27 0 -5 4 -7 9 -4 5 3 20 -3
34 -15 15 -11 28 -20 29 -20 15 1 48 -13 48 -21 0 -5 4 -7 9 -3 5 3 17 -2 25
-11 9 -9 16 -11 16 -4 0 7 7 5 16 -4 8 -9 20 -14 25 -11 5 4 9 1 9 -4 0 -6 3
-10 7 -10 5 1 11 0 16 -1 4 -1 12 -4 17 -5 6 -1 12 -4 15 -5 7 -3 22 -7 36 -9
5 0 7 -7 3 -14 -6 -9 -4 -9 8 1 9 7 18 9 20 3 1 -5 17 -11 33 -13 17 -2 33 -7
36 -11 3 -5 20 -9 37 -11 17 -1 35 -6 39 -11 4 -4 2 -5 -6 0 -9 5 -12 4 -8 -3
4 -5 16 -8 27 -5 11 3 27 0 35 -7 12 -10 15 -10 15 1 0 9 3 10 8 4 7 -10 27
-17 50 -18 6 0 12 -4 12 -9 0 -5 4 -7 9 -3 5 3 13 0 17 -6 4 -8 9 -7 15 2 6
10 9 10 9 2 0 -7 6 -10 14 -7 8 3 17 0 21 -6 5 -8 11 -8 21 1 11 9 15 8 20 -4
3 -9 13 -13 25 -10 12 3 19 0 19 -8 0 -9 3 -10 11 -2 8 8 18 7 37 -3 20 -10
28 -11 34 -1 6 9 8 9 8 -1 0 -6 3 -11 8 -11 28 5 52 -2 46 -14 -5 -8 -2 -8 9
2 14 11 17 11 17 0 0 -11 2 -11 10 1 7 11 10 11 10 2 0 -7 5 -10 10 -7 6 4 18
1 27 -7 14 -11 16 -11 8 2 -8 13 -7 13 8 1 9 -7 17 -10 17 -6 0 4 7 2 15 -5
12 -10 15 -10 15 0 0 9 4 9 13 3 6 -6 20 -9 30 -8 9 2 17 -1 17 -7 0 -6 6 -5
15 2 8 7 15 8 15 3 0 -6 11 -9 25 -8 14 2 27 0 30 -5 2 -4 17 -5 31 -2 20 4
25 2 19 -8 -6 -9 -3 -10 14 -1 16 9 21 9 21 -1 0 -9 3 -9 11 -1 8 8 18 7 37
-3 20 -10 28 -11 34 -1 4 7 8 8 8 2 0 -9 35 -13 137 -16 18 -1 31 -4 29 -8 -2
-3 26 -6 62 -5 37 0 73 -4 80 -9 7 -6 12 -6 12 0 0 5 7 10 15 10 8 0 15 -4 15
-8 0 -8 33 -4 50 6 6 4 7 -1 3 -11 -5 -13 -3 -15 7 -9 8 5 34 7 59 6 25 -2 57
-4 71 -5 14 -1 31 -5 39 -10 9 -6 12 -5 8 1 -4 7 5 10 23 9 17 0 30 -5 30 -10
0 -4 7 -3 15 4 11 9 15 9 15 1 0 -9 5 -9 20 -1 15 8 20 8 20 -1 0 -8 4 -8 15
1 8 7 15 8 15 2 0 -12 79 -10 99 2 9 6 12 5 8 -1 -8 -12 532 -12 552 1 9 6 12
5 7 -2 -4 -7 1 -10 14 -9 11 1 20 5 20 9 0 5 9 4 19 -2 14 -7 22 -7 27 1 4 8
9 7 15 -2 6 -10 9 -10 9 -2 0 9 7 10 23 4 13 -5 30 -6 37 -1 7 4 26 6 42 3 20
-3 28 -1 23 6 -4 8 1 8 19 1 17 -6 27 -6 32 1 4 8 9 7 15 -2 5 -8 9 -9 9 -3 0
6 15 9 35 8 26 -2 34 0 28 9 -5 8 -2 8 9 -1 12 -9 18 -10 23 -2 5 8 11 8 21
-1 8 -6 14 -7 14 -2 0 5 7 10 15 10 8 0 15 -4 15 -9 0 -5 5 -6 11 -2 11 7 53
12 144 17 22 2 47 7 55 12 9 5 15 4 18 -4 3 -9 10 -7 25 6 11 10 17 13 14 7
-4 -7 0 -15 9 -18 8 -3 12 -2 9 4 -6 10 10 13 73 12 18 0 30 3 28 7 -3 4 1 8
9 8 8 0 12 -5 8 -10 -3 -5 4 -4 16 2 12 7 26 9 31 6 5 -3 11 -1 14 3 3 5 15 8
28 7 13 -1 29 3 37 9 11 8 13 8 7 -1 -4 -7 -3 -13 3 -13 5 0 12 4 15 9 3 4 16
8 28 7 13 -1 42 4 66 11 32 9 42 9 42 0 0 -8 3 -8 8 -2 8 11 13 12 66 18 19 2
43 10 53 18 15 12 16 12 9 -5 -6 -18 -5 -19 11 -5 10 8 28 14 41 13 12 0 22 4
22 10 0 6 5 4 10 -4 7 -11 10 -11 10 -2 0 7 5 10 10 7 6 -3 10 -3 10 2 0 4 10
9 23 10 81 5 87 7 87 22 0 9 3 12 8 6 9 -13 42 -16 42 -3 0 5 4 7 9 3 5 -3 12
-1 16 4 3 5 14 8 25 6 11 -2 20 0 20 4 0 4 6 8 13 9 42 3 68 10 83 23 11 9 15
9 10 2 -5 -9 -2 -11 8 -7 9 3 16 11 16 18 0 6 5 4 10 -4 8 -12 10 -12 10 -1 0
8 3 12 6 8 8 -7 64 13 64 23 0 4 9 6 20 3 12 -3 20 0 20 6 0 7 4 10 8 7 4 -2
26 4 49 14 23 10 43 16 46 14 2 -3 10 2 16 10 7 8 19 12 27 9 8 -3 14 0 14 7
0 6 5 8 10 5 6 -3 10 -1 10 5 0 6 5 8 10 5 6 -3 10 -1 10 4 0 6 9 11 20 11 11
0 20 5 20 11 0 5 4 8 9 5 5 -4 11 -2 13 3 1 5 10 11 18 13 16 3 32 14 62 43
11 11 17 13 13 5 -6 -10 -1 -8 13 4 12 10 19 23 15 29 -3 6 -1 7 5 3 6 -4 20
2 31 13 11 11 22 17 25 15 3 -2 4 -1 1 3 -7 9 16 34 26 27 5 -3 6 3 2 12 -4
12 -3 15 5 10 7 -4 12 -2 12 3 0 18 3 26 17 39 7 8 11 17 8 22 -3 5 0 10 5 12
6 2 14 29 17 60 4 38 9 55 17 51 8 -5 8 -3 0 8 -6 8 -12 55 -12 109 0 52 -2
116 -4 143 -2 26 -1 47 2 47 10 0 0 125 -10 128 -6 2 -10 13 -10 25 0 12 -11
35 -25 51 -13 16 -22 33 -18 39 3 6 1 7 -5 3 -7 -4 -12 -1 -12 9 0 9 -4 14 -9
10 -6 -3 -15 4 -21 15 -6 11 -15 18 -19 16 -4 -3 -14 6 -21 19 -7 13 -16 22
-20 20 -4 -2 -16 5 -28 15 -12 11 -28 20 -37 20 -9 0 -13 5 -10 10 6 9 -10 14
-42 13 -7 -1 -10 3 -7 8 3 5 1 9 -5 9 -6 0 -8 7 -5 15 4 8 11 12 16 9 6 -4 6
1 -1 13 -7 14 -7 23 1 31 9 9 9 12 0 12 -7 0 -12 13 -12 30 0 21 -5 30 -16 30
-8 0 -13 4 -9 9 6 11 -32 26 -54 22 -7 -1 -2 9 10 22 13 13 25 20 27 16 2 -5
14 2 26 14 13 12 21 25 19 30 -2 4 1 7 7 7 6 0 8 5 5 10 -3 6 -2 10 3 10 8 0
9 13 4 73 -1 11 -7 15 -14 11 -7 -5 -8 -3 -3 5 11 19 -33 54 -69 56 -33 2 -39
17 -9 21 10 2 19 8 21 14 2 5 7 8 12 5 4 -2 18 12 32 33 22 35 26 61 15 107
-3 11 -6 24 -6 28 -1 5 -5 5 -11 2 -5 -3 -10 0 -10 8 0 8 -17 21 -37 30 -21 9
-29 15 -18 14 12 -1 19 3 17 11 -1 7 3 12 10 10 19 -4 61 41 74 79 7 18 9 33
5 33 -4 0 -8 12 -9 28 -1 15 -7 29 -12 30 -6 2 -8 8 -5 13 4 5 -2 6 -11 2 -14
-5 -16 -3 -10 12 4 11 4 16 0 12 -4 -4 -13 -2 -21 4 -7 6 -13 8 -13 5 0 -4 -6
-1 -14 6 -18 17 -11 28 14 23 11 -2 19 -1 17 3 -1 4 8 18 20 31 12 13 20 28
17 33 -3 4 -1 8 4 8 12 0 12 49 1 56 -5 3 -9 13 -9 23 0 19 -57 68 -73 63 -6
-2 -5 4 2 12 7 9 17 13 22 10 5 -3 9 -1 9 5 0 5 9 13 20 16 11 4 18 10 15 15
-3 4 2 10 10 14 8 3 15 12 15 21 0 8 6 15 13 15 9 0 8 3 -2 9 -9 6 -10 11 -2
15 7 4 7 13 2 24 -5 9 -14 30 -20 45 -6 15 -16 25 -21 22 -6 -3 -10 1 -10 10
0 9 -4 14 -9 10 -5 -3 -17 3 -27 12 -13 14 -14 18 -3 21 25 8 59 45 59 64 0
11 4 17 8 14 13 -8 8 68 -6 82 -7 8 -9 19 -5 25 3 7 3 9 -2 5 -5 -5 -15 1 -23
13 -8 11 -20 18 -28 15 -7 -3 -16 -1 -19 4 -4 6 -1 10 5 10 6 0 8 6 4 13 -4 6
-4 9 1 5 4 -4 17 -2 29 4 11 7 24 11 28 10 5 -1 7 4 5 11 -1 6 4 11 11 9 8 -1
11 2 7 8 -4 6 -1 17 5 25 7 8 9 15 5 15 -4 0 -2 7 5 15 7 8 8 15 3 15 -5 0
-10 9 -11 20 -4 43 -6 50 -13 50 -5 0 -16 9 -27 20 -10 11 -32 20 -50 22 -26
2 -36 12 -14 13 20 2 72 38 72 50 0 8 5 15 12 15 6 0 8 3 5 7 -4 3 -2 12 4 20
8 9 8 17 0 26 -8 10 -7 17 1 25 9 9 9 12 0 12 -7 0 -12 9 -12 21 0 11 -4 17
-10 14 -5 -3 -10 1 -10 10 0 9 -13 21 -30 26 -16 6 -30 15 -30 21 0 5 4 7 9 3
5 -3 17 2 25 11 9 8 16 12 16 7 0 -4 11 4 25 19 14 15 25 33 25 41 0 7 5 18
12 25 9 9 9 12 0 12 -14 0 -12 21 3 32 6 5 3 8 -7 8 -12 0 -15 6 -10 22 3 12
1 19 -5 15 -10 -7 -45 28 -36 37 3 3 -4 3 -16 1 -18 -3 -22 0 -19 18 2 12 10
22 18 22 8 1 14 6 13 13 -2 7 3 11 10 9 6 -1 12 6 12 16 0 10 5 21 11 25 13 9
17 62 3 62 -5 0 -8 4 -4 9 3 5 -2 16 -10 24 -8 9 -15 20 -15 26 0 6 -11 13
-25 17 -13 3 -29 12 -35 19 -9 11 -7 12 9 8 13 -3 21 -1 21 6 0 7 4 10 9 6 6
-3 15 4 21 15 6 11 15 18 21 15 8 -6 13 8 10 28 0 4 4 7 11 7 6 0 8 3 5 6 -3
4 -2 15 4 25 6 13 6 19 -1 19 -5 0 -9 3 -9 8 6 37 -51 108 -78 98 -7 -3 -15
-1 -18 4 -4 6 -1 10 5 10 6 0 9 4 6 9 -3 5 2 8 12 7 9 0 16 5 14 12 -1 8 2 11
7 8 11 -7 33 18 24 27 -3 4 -1 7 6 7 8 0 11 6 7 16 -3 8 -2 13 3 10 4 -3 8 8
9 24 0 17 -4 30 -9 30 -5 0 -9 8 -9 18 0 23 -33 55 -45 45 -4 -5 -5 -3 -1 4 4
7 -3 14 -15 18 -21 7 -22 8 -3 18 10 6 25 12 31 13 15 3 48 34 36 34 -4 0 -3
4 2 8 19 13 36 52 24 52 -8 0 -8 5 1 15 7 8 8 15 2 15 -5 0 -12 14 -15 30 -4
19 -13 30 -23 30 -10 0 -14 3 -11 7 9 9 -44 35 -60 29 -7 -3 -15 0 -19 6 -4 6
-3 8 4 4 6 -3 18 1 26 10 9 8 16 12 16 8 0 -4 11 3 25 16 14 13 25 32 25 42 0
10 4 18 8 18 11 0 12 31 2 45 -4 6 -6 20 -5 33 1 12 -4 22 -11 22 -6 0 -14 7
-18 15 -3 8 -11 14 -18 13 -7 -2 -14 7 -16 20 -2 12 0 22 5 21 19 -3 34 2 29
10 -3 4 6 13 20 20 14 6 23 15 19 20 -3 5 -1 12 5 16 6 4 8 11 5 16 -4 5 -2 9
2 9 5 0 9 9 9 19 0 11 -4 17 -8 15 -4 -3 -8 6 -8 20 0 14 -9 31 -20 39 -11 8
-17 17 -13 20 3 4 -4 7 -16 7 -15 0 -20 4 -15 13 6 9 5 9 -7 0 -9 -7 -20 -9
-29 -3 -12 8 -12 10 3 16 9 3 14 10 11 15 -3 5 1 6 9 3 9 -3 21 4 29 15 8 12
18 18 22 13 4 -4 7 -2 6 3 -5 21 0 46 8 41 13 -8 6 42 -9 60 -9 11 -9 15 -1
10 21 -13 13 11 -10 28 -13 9 -17 14 -10 11 6 -3 12 -4 12 -1 0 3 -16 13 -35
22 -34 16 -39 34 -9 34 8 0 14 5 14 10 0 6 9 10 21 10 11 0 18 4 15 9 -3 5 1
14 10 21 8 7 13 19 10 27 -3 8 2 13 12 13 13 0 14 2 4 9 -8 4 -13 11 -13 15 5
33 -4 56 -30 86 -17 19 -28 28 -23 20 7 -13 4 -12 -16 1 -23 15 -30 34 -12 34
17 0 72 28 72 37 0 5 5 6 10 3 6 -3 10 -2 10 4 0 6 6 8 14 5 7 -3 16 2 19 10
4 9 13 16 22 16 8 0 15 5 15 10 0 6 5 10 10 10 6 0 23 11 37 24 15 14 31 22
36 19 6 -3 7 -1 3 5 -3 6 3 16 14 22 12 6 19 18 16 25 -3 10 0 12 11 8 10 -4
14 -2 10 4 -4 6 0 13 8 17 8 3 15 12 15 21 0 8 5 15 11 15 5 0 7 5 4 10 -3 6
-1 10 5 10 6 0 8 5 5 10 -4 6 -2 17 4 24 6 7 12 33 13 57 0 24 6 47 12 51 8 6
8 8 0 8 -6 0 -12 24 -13 57 -1 31 -5 61 -8 66 -4 6 -1 7 7 2 9 -6 10 -2 5 15
-6 17 -4 21 6 14 11 -6 12 -5 3 7 -6 8 -12 21 -12 29 -1 8 -3 31 -5 50 -2 19
0 43 5 53 6 12 5 17 -4 17 -10 0 -10 2 -1 8 8 5 9 20 2 52 -6 25 -10 51 -11
58 -1 6 -5 12 -10 12 -5 0 -6 5 -3 10 3 6 1 10 -5 10 -6 0 -8 5 -5 10 3 6 1
10 -6 10 -7 0 -9 3 -6 6 3 4 -7 19 -23 34 -16 15 -26 30 -23 34 3 3 -1 6 -10
6 -9 0 -17 7 -17 15 0 8 -6 14 -12 13 -7 -2 -12 3 -10 10 1 8 -2 11 -7 8 -5
-4 -16 0 -24 8 -8 8 -17 12 -21 9 -3 -4 -6 1 -6 11 0 9 -4 15 -10 11 -5 -3
-18 3 -29 14 -11 11 -22 17 -25 14 -3 -4 -15 4 -26 17 -13 15 -20 18 -20 9 0
-9 -3 -10 -8 -3 -4 6 -17 14 -29 18 -13 4 -23 12 -23 17 0 6 -4 8 -9 4 -5 -3
-15 1 -23 8 -7 8 -23 13 -36 12 -12 -1 -22 2 -22 7 0 5 -4 7 -9 4 -5 -4 -11
-1 -13 4 -2 6 -10 13 -18 14 -62 14 -79 19 -75 26 3 5 -6 7 -20 5 -14 -1 -25
2 -25 7 0 5 -6 8 -12 7 -25 -3 -39 1 -34 10 3 4 -6 7 -19 5 -14 -1 -25 3 -25
9 0 7 -5 5 -10 -3 -6 -10 -10 -11 -10 -2 0 6 -11 12 -25 12 -14 0 -25 4 -25 9
0 5 -8 8 -17 6 -10 -1 -33 4 -51 11 -24 10 -31 10 -25 1 5 -8 2 -8 -9 1 -9 7
-30 14 -47 15 -17 1 -31 5 -31 8 0 4 -11 7 -25 8 -49 3 -55 4 -55 15 0 6 -5 4
-10 -4 -8 -12 -10 -12 -10 -1 0 8 -7 11 -20 8 -11 -3 -20 -2 -20 2 0 4 -16 7
-36 6 -19 0 -38 3 -40 7 -3 5 -10 6 -15 3 -5 -4 -9 -1 -9 5 0 7 -6 8 -17 2
-12 -7 -21 -5 -32 5 -10 10 -16 12 -19 5 -2 -8 -13 -6 -30 6 -25 16 -26 16
-19 -2 7 -18 6 -19 -10 -4 -10 8 -24 13 -30 11 -7 -3 -13 0 -13 6 0 7 -8 7
-26 1 -16 -7 -23 -7 -19 0 3 6 -1 10 -10 10 -9 0 -14 -4 -10 -10 3 -5 -6 -3
-20 4 -14 7 -36 12 -50 10 -14 -1 -25 2 -25 7 0 6 -9 5 -21 -2 -12 -6 -19 -7
-15 -1 3 5 -6 10 -22 10 -44 -1 -133 10 -139 16 -4 3 -12 1 -20 -5 -8 -7 -13
-8 -13 -1 0 9 -30 13 -95 13 -11 0 -23 5 -27 12 -6 9 -8 9 -8 0 0 -6 -8 -10
-17 -8 -10 2 -18 4 -18 5 0 1 -10 3 -22 4 -13 2 -23 -2 -23 -8 0 -7 -3 -7 -8
-1 -11 15 -32 17 -32 2 0 -9 -2 -9 -8 0 -5 8 -42 13 -105 15 -53 2 -97 7 -97
12 0 5 -7 3 -16 -5 -13 -10 -17 -10 -25 2 -7 12 -9 12 -9 -1 0 -12 -2 -12 -9
-1 -6 10 -13 11 -29 2 -14 -7 -23 -8 -27 -1 -3 5 -15 10 -26 10 -14 0 -18 -4
-13 -12 6 -10 4 -10 -7 -2 -8 6 -32 11 -54 10 -22 -1 -55 1 -72 5 -18 4 -33 4
-33 0 0 -4 -13 -7 -30 -6 -16 0 -30 4 -30 8 0 5 -5 5 -11 1 -16 -9 -109 -11
-109 -1 0 5 -5 5 -12 1 -16 -10 -108 -11 -108 -1 0 5 -5 5 -12 1 -15 -9 -58
-10 -80 -2 -9 4 -19 4 -22 0 -9 -9 -139 -9 -152 0 -6 4 -16 2 -22 -4z m-488
-1826 c2 -4 -4 -8 -14 -8 -10 0 -16 4 -14 8 3 4 9 8 14 8 5 0 11 -4 14 -8z
m1529 -17 c15 1 27 -2 27 -6 0 -13 -59 -4 -73 11 -10 12 -9 12 3 4 8 -6 27
-10 43 -9z m-1333 -5 c0 -9 -67 -6 -76 3 -4 4 11 6 34 5 23 -1 42 -4 42 -8z
m40 4 c0 -8 -19 -13 -24 -6 -3 5 1 9 9 9 8 0 15 -2 15 -3z m1380 -4 c0 -5 -2
-10 -4 -10 -3 0 -8 5 -11 10 -3 6 -1 10 4 10 6 0 11 -4 11 -10z m-1103 -15 c0
-8 -4 -12 -9 -9 -5 3 -6 10 -3 15 9 13 12 11 12 -6z m118 3 c5 4 5 1 1 -6 -6
-10 -11 -10 -22 -1 -8 6 -14 14 -14 16 0 3 6 0 13 -6 8 -6 18 -7 22 -3z m543
-13 c-3 -3 -9 2 -12 12 -6 14 -5 15 5 6 7 -7 10 -15 7 -18z m48 12 c8 3 14 3
14 0 0 -14 -30 -14 -41 1 -11 14 -11 15 0 5 7 -6 20 -9 27 -6z m109 1 c5 4 5
1 1 -6 -6 -10 -11 -10 -22 -1 -8 6 -14 14 -14 16 0 3 6 0 13 -6 8 -6 18 -7 22
-3z m-845 -2 c0 -2 -7 -7 -16 -10 -8 -3 -12 -2 -9 4 6 10 25 14 25 6z m390 -4
c0 -5 -7 -9 -15 -9 -8 0 -12 4 -9 9 3 4 9 8 15 8 5 0 9 -4 9 -8z m60 2 c0 -8
-19 -13 -24 -6 -3 5 1 9 9 9 8 0 15 -2 15 -3z m2310 -1644 c0 -5 -8 -10 -17
-10 -15 0 -16 2 -3 10 19 12 20 12 20 0z m-250 -2574 c0 -2 -7 -7 -16 -10 -8
-3 -12 -2 -9 4 6 10 25 14 25 6z m-95 -36 c-3 -5 -12 -10 -18 -10 -7 0 -6 4 3
10 19 12 23 12 15 0z m-110 -19 c3 -5 2 -12 -3 -15 -5 -3 -9 1 -9 9 0 17 3 19
12 6z m22 -13 c-3 -8 -6 -5 -6 6 -1 11 2 17 5 13 3 -3 4 -12 1 -19z m-51 0 c4
-6 3 -8 -4 -4 -6 3 -14 2 -17 -4 -4 -6 -16 -8 -27 -4 -14 4 -18 2 -14 -5 5 -7
1 -8 -9 -4 -13 5 -14 7 -3 14 7 5 20 6 30 3 9 -2 19 0 23 6 8 13 12 13 21 -2z
m-145 -35 c13 -16 12 -17 -3 -4 -14 11 -18 11 -18 1 0 -8 -3 -11 -6 -7 -5 5 3
27 10 27 2 0 10 -8 17 -17z m53 8 c3 -4 -4 -7 -14 -6 -27 2 -33 10 -10 12 11
1 22 -2 24 -6z m-3510 -13 c-2 -3 -13 -6 -24 -5 -24 2 -18 13 9 13 11 0 18 -4
15 -8z m3399 -16 c-12 -13 -17 -14 -21 -4 -3 10 -7 10 -20 0 -15 -12 -15 -11
-4 4 8 9 20 14 28 11 8 -3 14 0 14 7 0 6 5 8 10 5 6 -4 4 -13 -7 -23z m-59 3
c-4 -10 -13 -13 -26 -9 -12 3 -18 2 -15 -3 4 -5 0 -10 -8 -10 -8 0 -15 4 -15
8 0 10 30 20 40 14 5 -3 11 -1 15 5 9 15 15 12 9 -5z m-3249 -4 c3 -6 -3 -9
-14 -8 -11 0 -17 5 -15 9 7 11 22 10 29 -1z m88 -15 c11 1 16 0 12 -4 -3 -3
-17 -7 -30 -8 -16 0 -22 3 -18 13 3 8 9 10 12 5 3 -5 14 -8 24 -6z m3084 -8
c-3 -8 -6 -5 -6 6 -1 11 2 17 5 13 3 -3 4 -12 1 -19z m-67 -2 c0 -8 -10 -14
-22 -14 -13 0 -36 -3 -53 -7 -16 -4 -46 -8 -65 -8 -19 -1 -39 -6 -43 -12 -5
-6 -7 -4 -4 5 3 14 29 20 82 21 10 0 24 4 30 8 5 5 22 8 38 7 15 -1 27 2 27 6
0 4 2 8 5 8 3 0 5 -6 5 -14z m50 6 c0 -4 -9 -8 -19 -8 -11 0 -17 4 -15 8 3 4
12 8 20 8 8 0 14 -4 14 -8z m-2961 -18 c3 -4 -2 -4 -11 -1 -10 4 -18 2 -18 -4
0 -6 -4 -7 -10 -4 -5 3 -10 10 -10 15 0 10 39 5 49 -6z m104 -8 c8 5 9 4 2 -3
-5 -6 -25 -9 -44 -6 -22 4 -29 8 -20 14 7 4 21 3 31 -2 10 -6 24 -7 31 -3z
m117 -17 c0 -11 -29 -19 -35 -9 -3 5 -12 7 -20 3 -8 -3 -15 -1 -15 4 0 5 16 9
35 9 19 0 35 -3 35 -7z m2400 -4 c0 6 20 11 45 11 55 2 60 -11 6 -14 -21 -2
-49 -5 -62 -8 -41 -9 -119 -12 -124 -4 -2 3 22 8 53 9 31 1 59 7 61 13 2 6 7
5 12 -3 5 -8 9 -9 9 -4z m-2302 -8 c6 3 12 1 12 -4 0 -12 -86 -10 -97 1 -4 5
-3 6 4 2 6 -3 14 -2 18 3 3 6 15 7 28 2 12 -4 28 -6 35 -4z m102 -27 c0 -6 -9
-2 -20 7 -11 10 -20 19 -20 21 0 1 9 -2 20 -8 11 -6 20 -15 20 -20z m2029 17
c8 -11 6 -13 -12 -12 -12 1 -37 -2 -54 -6 -24 -5 -33 -3 -33 6 0 8 13 12 40
10 22 -1 40 2 40 6 0 13 6 11 19 -4z m-1948 -14 c9 -9 8 -11 -2 -10 -8 2 -20
6 -26 10 -7 5 -13 4 -13 -2 0 -6 -7 -8 -15 -5 -25 10 -17 20 15 19 16 0 35 -6
41 -12z m1839 -2 c0 -4 -10 -7 -22 -8 -13 0 -29 -2 -37 -4 -7 -2 -15 2 -16 9
-2 7 -1 8 1 3 3 -6 12 -7 20 -4 7 3 12 8 9 13 -2 4 7 5 20 2 14 -2 25 -7 25
-11z m-1786 1 c6 -10 36 -9 52 0 5 4 16 3 24 -3 16 -10 12 -11 -40 -13 -19 -1
-38 3 -42 9 -5 6 -11 5 -18 -5 -5 -8 -10 -10 -10 -4 0 21 24 32 34 16z m131
-20 c-6 -7 -34 11 -29 19 3 5 11 3 19 -4 7 -6 12 -13 10 -15z m64 -6 c-3 -3
-11 5 -18 17 -13 21 -12 21 5 5 10 -10 16 -20 13 -22z m1357 22 c4 -7 3 -8 -4
-4 -7 4 -12 2 -12 -5 0 -7 -3 -10 -6 -6 -6 5 3 27 11 27 2 0 7 -5 11 -12z m81
-3 c12 0 25 4 28 7 4 4 13 4 21 1 29 -11 12 -19 -40 -19 -41 1 -52 4 -48 14 2
8 8 10 11 5 3 -4 16 -8 28 -8z m-1257 -18 c0 -5 6 -5 12 -1 18 11 48 12 48 2
0 -11 -28 -13 -158 -7 -93 3 -83 14 14 14 46 0 84 -4 84 -8z m940 -8 c0 -5 -7
-5 -17 -2 -12 5 -14 3 -8 -8 7 -11 6 -12 -6 -2 -12 10 -18 10 -27 1 -7 -7 -12
-8 -12 -4 0 5 8 14 17 21 17 13 53 9 53 -6z m205 4 c3 -10 0 -11 -15 -3 -10 5
-21 6 -24 1 -3 -4 -24 -5 -46 -1 -22 4 -40 5 -40 1 0 -10 -64 -5 -67 5 -5 15
186 12 192 -3z m55 7 c0 -5 -5 -10 -11 -10 -5 0 -7 5 -4 10 3 6 8 10 11 10 2
0 4 -4 4 -10z m-1089 -17 c11 -15 11 -16 -1 -5 -18 15 -34 16 -24 0 4 -7 3 -8
-5 -4 -12 8 -6 26 8 26 5 0 15 -8 22 -17z m42 4 c3 -8 -1 -14 -8 -14 -7 0 -11
6 -8 14 3 7 6 13 8 13 2 0 5 -6 8 -13z m55 -5 c5 -16 -10 -15 -33 1 -17 13
-16 14 5 12 13 -1 26 -7 28 -13z m110 4 c25 2 30 -11 6 -20 -8 -3 -13 -2 -10
3 3 5 -17 8 -44 6 -28 -1 -50 2 -50 7 0 6 6 8 13 5 8 -3 20 -1 28 3 7 5 18 5
24 1 5 -4 20 -6 33 -5z m310 4 c9 7 9 7 2 -2 -12 -15 -80 -19 -80 -5 0 5 7 7
15 4 8 -4 17 -2 21 4 4 7 10 7 18 0 8 -7 17 -7 24 -1z m78 -3 c8 3 14 1 14 -4
0 -5 -15 -9 -32 -8 -18 0 -38 -1 -43 -4 -6 -4 -2 2 9 12 12 11 23 14 29 8 5
-5 16 -7 23 -4z m74 -8 c0 -5 -4 -9 -10 -9 -5 0 -10 5 -10 11 0 8 -5 8 -15 -1
-9 -8 -15 -8 -15 -2 0 6 6 12 13 15 16 5 37 -3 37 -14z m-350 0 c0 -4 -18 -7
-40 -6 -22 1 -40 4 -40 8 0 3 18 6 40 6 22 0 40 -4 40 -8z m110 2 c0 -4 -22
-7 -50 -7 -27 0 -50 3 -50 7 0 3 23 6 50 6 28 0 50 -3 50 -6z m290 1 c0 -4 -9
-8 -20 -8 -11 0 -20 4 -20 8 0 4 9 8 20 8 11 0 20 -4 20 -8z m30 4 c0 -3 -4
-8 -10 -11 -5 -3 -10 -1 -10 4 0 6 5 11 10 11 6 0 10 -2 10 -4z"/>
<path d="M1581 4278 c-1 -21 -21 -23 -40 -5 -10 8 -12 8 -7 0 4 -8 -2 -11 -21
-9 -16 1 -36 -2 -47 -7 -12 -6 -16 -5 -12 1 3 6 -14 9 -46 7 -29 -1 -54 -7
-56 -13 -2 -7 -8 -9 -14 -6 -6 4 -14 0 -19 -7 -6 -10 -9 -11 -9 -1 0 16 -25
16 -38 -1 -6 -7 -27 -12 -46 -11 -20 1 -36 -2 -36 -7 0 -5 -9 -9 -20 -9 -11 0
-20 -6 -20 -12 0 -10 -2 -10 -9 0 -7 11 -11 11 -22 0 -8 -8 -17 -15 -22 -16
-40 -9 -63 -16 -67 -23 -5 -7 -34 -16 -63 -18 -5 -1 -5 -6 -1 -12 4 -8 -1 -9
-16 -4 -13 4 -20 3 -17 -2 3 -5 -3 -15 -15 -22 -16 -10 -19 -10 -13 1 3 7 -1
4 -10 -7 -9 -11 -23 -19 -32 -17 -8 2 -12 -1 -8 -7 3 -6 -1 -11 -10 -11 -22 0
-67 -35 -57 -45 4 -3 3 -6 -3 -5 -22 5 -36 -1 -29 -12 4 -6 3 -8 -4 -4 -6 3
-17 -1 -25 -9 -9 -8 -21 -15 -27 -15 -6 0 -8 -4 -5 -10 6 -9 -8 -14 -27 -11
-5 0 -7 -3 -5 -8 3 -12 -50 -60 -58 -52 -4 3 -5 1 -3 -4 2 -6 -22 -34 -52 -64
-30 -29 -48 -49 -40 -45 13 7 13 5 1 -9 -7 -9 -18 -14 -24 -10 -6 3 -7 1 -3
-5 4 -7 -5 -24 -22 -40 -16 -15 -33 -37 -37 -50 -3 -12 -10 -20 -15 -17 -4 3
-7 -3 -6 -12 4 -24 -16 -45 -27 -29 -6 7 -7 4 -3 -7 3 -11 -1 -25 -10 -34 -8
-9 -12 -23 -9 -31 3 -9 3 -13 -1 -9 -4 4 -13 2 -21 -4 -10 -9 -10 -15 -2 -25
8 -10 8 -14 0 -14 -6 0 -10 -4 -8 -9 1 -5 -7 -17 -18 -26 l-20 -17 20 6 c19 6
19 5 3 -7 -10 -8 -15 -17 -11 -20 3 -4 -2 -7 -13 -7 -10 0 -15 -4 -9 -8 15
-11 17 -32 2 -29 -6 1 -11 -4 -9 -12 1 -7 -3 -19 -9 -27 -9 -11 -8 -14 2 -14
8 0 6 -5 -6 -14 -11 -8 -16 -20 -12 -29 3 -9 2 -19 -4 -22 -5 -4 -7 -10 -4
-15 3 -5 1 -11 -5 -15 -6 -4 -8 -11 -4 -16 3 -5 0 -17 -8 -26 -11 -14 -11 -16
2 -8 9 5 7 -1 -5 -15 -11 -13 -14 -20 -7 -16 7 4 12 1 12 -9 0 -9 -4 -14 -9
-11 -13 8 -21 -18 -10 -35 12 -19 11 -32 -1 -24 -6 4 -7 -2 -1 -18 7 -17 6
-29 -2 -37 -9 -10 -9 -11 3 -5 13 8 13 7 1 -8 -11 -14 -11 -17 0 -17 8 0 5 -6
-7 -15 -19 -15 -19 -15 1 -8 19 6 19 6 3 -13 -17 -19 -17 -21 0 -38 9 -11 11
-16 5 -12 -7 4 -13 3 -13 -1 0 -5 6 -15 13 -22 7 -9 7 -11 1 -8 -7 4 -15 0
-18 -9 -3 -8 -2 -13 3 -10 5 3 11 -1 14 -8 3 -8 1 -17 -6 -20 -8 -3 -8 -5 2
-5 11 -1 11 -4 0 -18 -12 -15 -12 -16 1 -8 13 7 13 6 2 -7 -9 -11 -10 -18 -2
-23 6 -3 7 -12 3 -18 -12 -19 -12 -37 -2 -37 6 0 7 -5 3 -12 -5 -8 -1 -9 12
-5 18 7 18 7 0 -8 -11 -8 -14 -15 -7 -15 7 0 9 -4 6 -10 -3 -5 -2 -10 4 -10 7
0 7 -8 1 -25 -7 -18 -6 -24 2 -22 6 1 12 -10 12 -25 1 -14 4 -30 8 -34 5 -4 8
-16 8 -27 0 -11 8 -29 18 -40 9 -11 11 -17 5 -13 -15 8 -18 -10 -3 -19 5 -3 6
-13 3 -22 -5 -12 -3 -14 7 -8 10 6 12 3 8 -13 -4 -12 -1 -25 4 -29 7 -4 8 -1
3 7 -6 9 -4 11 4 6 7 -5 10 -14 7 -22 -3 -8 -1 -14 5 -14 6 0 7 -4 4 -10 -3
-5 -1 -10 4 -10 6 0 11 -7 11 -15 0 -8 4 -15 10 -15 5 0 7 -7 4 -15 -4 -8 -1
-15 6 -15 7 0 10 -6 7 -14 -3 -8 1 -17 10 -20 9 -4 13 -9 10 -13 -4 -3 3 -14
14 -24 11 -9 21 -21 21 -26 1 -20 11 -32 20 -27 6 4 5 -3 -1 -15 -10 -18 -9
-20 5 -14 11 4 15 2 11 -4 -4 -6 4 -18 18 -27 14 -9 25 -23 25 -30 0 -8 13
-28 29 -45 15 -16 26 -33 22 -37 -3 -4 2 -4 12 -1 10 4 16 3 13 -2 -3 -5 1
-12 10 -15 8 -3 12 -10 9 -16 -6 -10 9 -15 30 -10 6 1 7 -1 3 -5 -4 -4 9 -22
28 -41 19 -19 34 -39 34 -44 0 -6 6 -9 13 -8 6 2 11 -3 9 -11 -3 -12 -1 -12
14 0 12 9 15 9 10 2 -4 -8 -1 -13 8 -13 9 0 16 -7 16 -16 0 -8 5 -12 10 -9 6
3 10 2 10 -3 0 -9 50 -37 62 -34 4 1 4 -6 1 -14 -4 -12 -2 -15 8 -12 8 3 20
-1 27 -8 7 -7 20 -10 29 -7 13 5 15 2 10 -11 -4 -9 -3 -15 2 -11 13 7 61 -16
61 -29 0 -6 5 -4 10 4 8 13 10 13 10 -2 0 -12 5 -15 17 -11 11 4 14 3 9 -5 -5
-8 2 -12 23 -12 16 0 31 -5 33 -10 2 -6 13 -12 26 -13 12 0 22 -5 22 -10 0 -5
6 -7 13 -4 6 2 18 -3 25 -12 12 -14 13 -14 7 4 -5 17 -3 17 21 -5 15 -14 23
-18 19 -10 -8 13 -6 13 8 1 9 -7 23 -11 31 -8 7 3 19 0 25 -6 16 -16 36 -18
313 -21 161 -1 255 1 251 7 -3 5 0 7 8 5 8 -3 20 2 26 11 11 14 14 14 23 1 7
-11 10 -11 10 -2 0 7 5 10 10 7 6 -3 10 -2 10 4 0 6 7 8 15 5 8 -4 15 -1 15 4
0 6 14 9 30 7 21 -3 28 -1 24 7 -5 7 -2 9 9 5 9 -3 19 -2 22 3 4 6 17 10 31
10 13 0 24 3 24 8 0 4 11 12 25 19 19 8 23 8 19 0 -4 -7 3 -2 15 11 12 12 26
20 32 17 5 -4 9 -1 9 4 0 6 3 10 8 9 11 -2 62 24 62 33 0 5 6 6 14 3 9 -3 17
3 21 17 6 17 9 19 16 8 5 -8 9 -9 9 -4 0 6 14 16 30 23 17 8 30 20 30 28 0 8
6 11 17 7 11 -4 14 -3 9 5 -4 7 -2 12 4 12 6 0 8 5 4 12 -4 7 -3 8 4 4 12 -7
29 3 64 41 12 12 25 20 29 17 5 -3 6 2 3 10 -4 10 -1 16 10 16 8 0 20 9 26 20
6 11 15 18 21 15 5 -4 9 3 9 15 0 12 3 19 8 17 9 -6 72 60 64 67 -3 3 0 6 6 6
7 0 12 7 12 15 0 8 7 15 16 15 8 0 13 4 9 9 -3 6 3 14 12 20 10 6 14 11 9 11
-5 0 1 12 15 27 13 14 17 23 9 19 -8 -4 -4 2 9 13 13 12 19 21 15 21 -5 0 -4
4 2 8 13 9 66 112 57 112 -4 0 2 7 13 16 10 8 12 12 5 8 -9 -4 -4 7 9 26 13
18 19 31 13 27 -8 -5 -8 0 0 17 7 13 14 23 17 21 3 -2 6 4 6 13 1 27 8 46 19
54 6 5 5 8 -4 8 -11 0 -11 3 -1 15 6 8 9 19 5 25 -3 5 -1 10 5 10 6 0 9 4 5 9
-3 5 -1 12 4 16 6 3 8 12 4 20 -3 8 0 15 7 15 6 0 8 5 5 10 -4 6 -1 17 5 25 9
11 9 15 1 15 -9 0 -9 5 -1 20 8 15 8 20 -2 20 -10 0 -10 2 -1 8 7 4 12 16 13
27 5 209 5 273 -2 288 -6 11 -5 17 3 17 8 0 8 4 2 13 -6 6 -8 24 -6 40 2 15
-1 27 -7 27 -7 0 -7 7 1 21 8 15 8 19 0 15 -7 -5 -12 3 -12 18 -3 47 -4 51
-11 56 -4 3 -8 20 -10 38 -1 18 -6 32 -11 32 -4 0 -6 4 -3 9 8 13 -4 42 -15
35 -5 -3 -6 2 -3 11 4 8 1 22 -6 30 -6 8 -9 19 -5 25 3 5 2 10 -3 10 -6 0 -13
7 -16 16 -3 8 -2 12 4 9 6 -3 10 -1 10 4 0 6 -7 11 -15 11 -8 0 -15 9 -15 19
0 11 -5 21 -10 23 -6 2 -12 13 -13 26 0 12 -5 22 -9 22 -4 0 -8 7 -8 15 0 8
-5 15 -11 15 -5 0 -7 5 -4 10 3 6 1 10 -4 10 -6 0 -11 7 -11 15 0 9 -7 18 -15
21 -8 4 -15 14 -15 23 0 9 -9 23 -20 31 -11 8 -20 22 -20 31 0 20 -24 42 -35
31 -5 -4 -6 0 -2 10 4 11 -1 18 -14 21 -11 3 -23 15 -26 26 -3 11 -9 18 -14
15 -5 -3 -9 1 -9 8 0 15 -61 73 -72 70 -5 -1 -8 5 -8 14 0 8 -4 12 -10 9 -5
-3 -10 2 -10 11 0 10 -3 15 -6 11 -6 -5 -15 0 -48 30 -8 7 -16 9 -20 6 -3 -4
-6 1 -6 10 0 9 -5 19 -12 23 -7 5 -8 3 -3 -6 5 -9 4 -11 -3 -6 -7 4 -12 13
-12 21 0 8 -9 12 -24 11 -18 -2 -23 1 -18 12 3 10 1 13 -6 8 -7 -4 -15 -1 -18
8 -3 9 -13 16 -20 16 -15 0 -73 37 -85 53 -3 5 -9 8 -13 8 -28 -4 -46 1 -40
10 4 7 1 10 -7 7 -8 -3 -20 2 -27 11 -11 13 -12 13 -6 1 6 -11 2 -10 -13 3
-11 9 -23 14 -26 10 -4 -3 -7 -2 -7 3 0 5 -10 10 -22 11 -11 1 -24 6 -27 10
-3 4 -19 10 -36 12 -16 1 -32 6 -35 10 -3 3 -18 7 -35 9 -16 2 -32 7 -35 11
-3 4 -20 7 -37 6 -18 0 -33 2 -33 7 0 4 -9 5 -20 3 -11 -2 -20 0 -20 5 0 10
-19 8 -37 -3 -8 -5 -13 -3 -13 3 0 7 -6 8 -18 1 -13 -7 -22 -7 -29 0 -8 8 -13
7 -17 0 -4 -6 -13 -11 -19 -11 -7 0 -6 4 3 11 12 8 8 10 -17 6 -23 -2 -33 1
-36 12 -4 13 -5 13 -6 -1z m-283 -940 c19 9 87 -10 76 -21 -7 -6 10 -11 29 -8
4 0 7 -6 7 -15 0 -8 5 -12 10 -9 6 3 10 -1 10 -9 0 -9 4 -16 8 -16 5 0 14 -12
20 -26 10 -20 10 -24 0 -18 -10 5 -10 4 -1 -6 9 -10 10 -17 2 -27 -9 -10 -8
-13 2 -13 11 0 11 -2 -1 -10 -12 -8 -12 -10 -1 -10 12 0 11 -3 -1 -17 -9 -10
-13 -24 -10 -32 3 -9 0 -11 -8 -6 -10 6 -12 4 -7 -8 4 -12 2 -14 -10 -10 -11
4 -14 2 -9 -5 4 -7 1 -12 -7 -12 -8 0 -18 -7 -21 -16 -3 -8 -10 -12 -16 -9 -5
3 -10 2 -10 -3 0 -13 -62 -24 -73 -13 -5 5 -16 7 -23 4 -8 -3 -14 0 -14 7 0 6
-4 8 -10 5 -5 -3 -10 -2 -10 3 0 5 -12 14 -26 21 -15 6 -24 15 -20 18 3 3 -7
17 -22 31 -15 13 -21 21 -15 18 9 -5 11 -2 7 8 -3 9 -11 13 -17 9 -6 -4 -7 -1
-1 8 5 8 7 22 6 32 -2 10 2 26 10 35 9 11 10 14 1 8 -7 -4 -13 -2 -13 3 0 6 5
11 11 11 5 0 7 5 4 10 -3 6 1 10 9 10 9 0 15 3 15 8 -3 17 1 35 7 29 7 -7 34
15 29 23 -2 3 6 7 17 7 12 1 26 7 32 13 7 7 12 7 14 0 2 -6 10 -7 20 -2z m597
-4 c8 3 15 1 15 -5 0 -6 7 -8 16 -5 8 3 12 2 9 -4 -3 -6 -1 -10 5 -10 6 0 8
-5 5 -10 -4 -6 -3 -10 2 -9 23 4 32 -2 26 -18 -4 -9 -2 -14 3 -11 5 3 15 0 22
-8 10 -11 10 -14 0 -14 -10 0 -10 -2 0 -9 43 -27 -12 -176 -69 -189 -7 -2 -16
-7 -19 -10 -20 -27 -140 -19 -140 9 0 4 -9 11 -20 14 -11 4 -17 11 -14 17 5 7
1 9 -9 5 -13 -5 -17 -1 -17 14 0 13 -4 18 -12 13 -7 -4 -10 -4 -6 1 4 4 2 15
-5 23 -10 13 -9 14 2 7 11 -6 13 -4 7 11 -12 29 -14 84 -2 77 5 -4 7 1 3 11
-4 10 -1 19 8 22 8 4 13 10 10 15 -3 4 4 13 15 19 11 6 17 16 14 22 -4 6 -3 8
4 4 6 -3 18 1 26 10 12 12 16 12 17 2 0 -10 2 -10 6 -1 3 8 14 11 29 7 16 -4
24 -2 24 6 0 10 3 10 15 0 8 -7 22 -10 30 -6z m-522 -607 c9 -2 23 -9 30 -17
9 -11 8 -11 -8 0 -18 14 -19 14 -6 -2 7 -10 20 -18 27 -18 8 0 14 -6 14 -14 0
-8 7 -16 15 -20 8 -3 15 -10 15 -16 0 -6 -5 -8 -12 -4 -8 5 -8 3 -2 -7 11 -17
12 -109 1 -109 -5 0 -5 -4 -2 -10 3 -5 1 -10 -5 -10 -6 0 -8 -4 -5 -10 3 -5
-1 -10 -9 -10 -9 0 -15 -6 -13 -12 1 -7 -4 -12 -10 -11 -7 2 -13 -2 -13 -7 0
-5 -9 -10 -20 -10 -11 0 -20 -4 -20 -9 0 -12 -112 -3 -121 10 -4 6 -12 8 -19
4 -9 -6 -11 -4 -5 5 6 10 4 12 -8 7 -11 -4 -15 -1 -12 12 2 12 -6 23 -21 31
-18 10 -21 16 -13 27 9 10 8 13 0 13 -7 0 -10 3 -8 8 3 4 6 27 8 52 3 50 17
80 36 80 7 0 13 5 13 11 0 5 -5 7 -12 3 -7 -4 -8 -3 -4 5 4 6 12 9 17 6 5 -4
9 -1 9 5 0 6 5 8 10 5 6 -3 10 -2 10 4 0 16 71 20 143 8z m411 -9 c-6 -10 -5
-10 7 -1 17 14 119 14 119 0 0 -6 3 -8 6 -5 7 8 62 -45 57 -54 -2 -5 2 -8 11
-8 9 0 13 -8 12 -25 -2 -13 1 -22 5 -19 5 3 8 -17 7 -44 -2 -28 -5 -48 -7 -46
-2 2 -15 -12 -27 -30 -13 -19 -33 -37 -44 -41 -11 -3 -20 -11 -20 -17 0 -6 -3
-8 -7 -5 -3 4 -12 2 -20 -4 -7 -7 -13 -7 -13 -2 0 6 -18 9 -40 7 -35 -3 -45 2
-72 32 -17 18 -38 34 -45 34 -8 0 -11 5 -8 10 3 6 2 10 -3 10 -5 0 -10 21 -11
46 0 26 -4 50 -7 55 -3 5 -1 9 5 9 6 0 7 7 4 17 -4 11 -3 14 5 9 7 -4 12 -1
12 9 0 8 9 23 19 32 11 9 17 21 14 26 -3 6 -1 7 5 3 6 -3 13 -2 17 4 3 5 11
10 16 10 6 0 7 -6 3 -12z"/>
</g>
</svg>
