<svg width="36" height="36" viewBox="45 45 200 200" xmlns="http://www.w3.org/2000/svg">
  <defs></defs>
  <path fill="#c6232e" d="M 144.999 243.909 C 90.462 243.909 46.093 199.542 46.093 145 C 46.093 90.463 90.462 46.091 144.999 46.091 C 199.544 46.091 243.907 90.463 243.907 145 C 243.907 199.542 199.544 243.909 144.999 243.909 Z M 144.999 58.671 C 97.398 58.671 58.669 97.394 58.669 145 C 58.669 192.605 97.398 231.332 144.999 231.332 C 192.609 231.332 231.337 192.605 231.337 145 C 231.337 97.394 192.609 58.671 144.999 58.671 Z M 156.52 96.16 C 151.688 86.375 148.737 76.86 147.247 71.315 L 147.247 141.37 C 149.694 142.287 151.444 144.627 151.444 147.391 C 151.444 150.95 148.557 153.833 145.001 153.833 C 141.441 153.833 138.558 150.948 138.558 147.391 C 138.558 144.495 140.483 142.074 143.116 141.26 L 143.116 71.241 C 141.631 76.772 138.678 86.333 133.823 96.16 C 126.252 111.474 116.814 124.983 116.814 124.983 L 122.85 207.581 C 122.85 207.581 128.586 213.982 145.16 213.991 L 145.183 213.991 C 161.756 213.982 167.495 207.581 167.495 207.581 L 173.53 124.983 C 173.527 124.983 164.089 111.475 156.52 96.16 Z"></path>
</svg>